<svg width="184" height="43" viewBox="0 0 184 43" fill="none" xmlns="http://www.w3.org/2000/svg">
<path fill-rule="evenodd" clip-rule="evenodd" d="M0.0567554 27.757L31.673 0.225098L56.2797 20.6853H49.9919L31.673 6.06608L5.06317 29.3036V42.2371H0.0565893C0.0565893 37.143 -0.0708473 32.7329 0.0567554 27.757Z" fill="#00AC97"/>
<path d="M18.7191 42.7406H30.0367V40.4535H21.2655V36.4687H28.8106V34.1815H21.2655V30.9041H29.7066V28.5934H18.7191V42.7406Z" fill="#00AC97"/>
<path d="M44.0733 40.4063H38.2022L35.3728 40.5007L43.9554 30.3618V28.5934H32.2369V30.8569H37.4477L40.4658 30.7862L31.9068 40.8308V42.7406H44.0733V40.4063Z" fill="#00AC97"/>
<path d="M56.2835 28.5934L50.0116 42.7406H52.676L53.8313 40.1469H61.3764L62.5553 42.7406H65.2669L58.995 28.5934H56.2835ZM57.4388 31.1399H57.7218L60.4333 37.8598H54.798L57.4388 31.1399Z" fill="#565D70"/>
<path d="M66.7821 32.4131C66.7821 33.5213 67.0887 34.2758 67.631 34.8417C68.3619 35.5727 69.4229 35.9735 70.7197 36.1857L73.8557 36.728C74.6809 36.8931 75.4354 37.1053 75.9306 37.459C76.2843 37.7419 76.4965 38.0956 76.4965 38.6379C76.4965 39.1802 76.3078 39.581 75.9306 39.8876C75.0818 40.5242 73.9736 40.6892 72.2759 40.6892C70.6962 40.6892 69.0457 40.3356 67.3245 39.6518L66.5464 41.7267C68.5034 42.6227 69.9417 43 72.3231 43C74.2094 43 76.1192 42.6699 77.3689 41.7974C78.3356 41.1372 78.9958 40.0762 78.9958 38.5672C78.9958 37.4118 78.6421 36.6101 78.0055 35.9735C77.0624 35.0539 75.6005 34.6059 74.1858 34.3466L71.3092 33.8278C70.8141 33.7335 70.1774 33.6156 69.7766 33.3091C69.4229 33.0969 69.2343 32.8375 69.2343 32.4367C69.2343 31.9415 69.4465 31.5407 69.8709 31.2342C70.5547 30.739 71.6865 30.6211 72.8418 30.6211C74.3508 30.6211 75.8363 30.9748 77.4396 31.7529L78.3828 29.7487C76.2843 28.6877 74.4923 28.334 72.7003 28.334C70.9084 28.334 69.305 28.6877 68.244 29.5129C67.3716 30.1495 66.7821 31.0927 66.7821 32.4131Z" fill="#565D70"/>
<path d="M80.6207 32.4131C80.6207 33.5213 80.9272 34.2758 81.4695 34.8417C82.2004 35.5727 83.2615 35.9735 84.5583 36.1857L87.6942 36.728C88.5195 36.8931 89.274 37.1053 89.7691 37.459C90.1228 37.7419 90.335 38.0956 90.335 38.6379C90.335 39.1802 90.1464 39.581 89.7691 39.8876C88.9203 40.5242 87.8121 40.6892 86.1145 40.6892C84.5347 40.6892 82.8842 40.3356 81.163 39.6518L80.3849 41.7267C82.3419 42.6227 83.7802 43 86.1616 43C88.0479 43 89.9578 42.6699 91.2074 41.7974C92.1741 41.1372 92.8343 40.0762 92.8343 38.5672C92.8343 37.4118 92.4806 36.6101 91.844 35.9735C90.9009 35.0539 89.439 34.6059 88.0243 34.3466L85.1477 33.8278C84.6526 33.7335 84.016 33.6156 83.6151 33.3091C83.2615 33.0969 83.0728 32.8375 83.0728 32.4367C83.0728 31.9415 83.285 31.5407 83.7095 31.2342C84.3932 30.739 85.525 30.6211 86.6803 30.6211C88.1894 30.6211 89.6748 30.9748 91.2781 31.7529L92.2213 29.7487C90.1228 28.6877 88.3308 28.334 86.5389 28.334C84.7469 28.334 83.1436 28.6877 82.0825 29.5129C81.2101 30.1495 80.6207 31.0927 80.6207 32.4131Z" fill="#565D70"/>
<path d="M94.7186 42.7406H106.036V40.4535H97.2651V36.4687H104.81V34.1815H97.2651V30.9041H105.706V28.5934H94.7186V42.7406Z" fill="#565D70"/>
<path d="M107.553 30.8569H112.811V42.7406H115.286V30.8569H120.544V28.5934H107.553V30.8569Z" fill="#565D70"/>
<path d="M121.584 32.4131C121.584 33.5213 121.89 34.2758 122.432 34.8417C123.163 35.5727 124.224 35.9735 125.521 36.1857L128.657 36.728C129.482 36.8931 130.237 37.1053 130.732 37.459C131.086 37.7419 131.298 38.0956 131.298 38.6379C131.298 39.1802 131.109 39.581 130.732 39.8876C129.883 40.5242 128.775 40.6892 127.077 40.6892C125.498 40.6892 123.847 40.3356 122.126 39.6518L121.348 41.7267C123.305 42.6227 124.743 43 127.125 43C129.011 43 130.921 42.6699 132.17 41.7974C133.137 41.1372 133.797 40.0762 133.797 38.5672C133.797 37.4118 133.444 36.6101 132.807 35.9735C131.864 35.0539 130.402 34.6059 128.987 34.3466L126.111 33.8278C125.616 33.7335 124.979 33.6156 124.578 33.3091C124.224 33.0969 124.036 32.8375 124.036 32.4367C124.036 31.9415 124.248 31.5407 124.672 31.2342C125.356 30.739 126.488 30.6211 127.643 30.6211C129.152 30.6211 130.638 30.9748 132.241 31.7529L133.184 29.7487C131.086 28.6877 129.294 28.334 127.502 28.334C125.71 28.334 124.107 28.6877 123.046 29.5129C122.173 30.1495 121.584 31.0927 121.584 32.4131Z" fill="#565D70"/>
<path fill-rule="evenodd" clip-rule="evenodd" d="M32.1545 15.0784C34.0248 15.3576 35.5035 16.8361 35.7827 18.7066H32.1545V15.0784ZM35.7827 19.993C35.5035 21.8633 34.025 23.342 32.1545 23.6212V19.993H35.7827ZM30.8681 23.6212C28.9978 23.342 27.5191 21.8635 27.2399 19.993H30.8681V23.6212ZM27.2399 18.7066C27.5191 16.8363 28.9976 15.3576 30.8681 15.0784V18.7066H27.2399Z" fill="#00AC97"/>
</svg>
